<svg width="29" height="29" viewBox="0 0 29 29" fill="none" xmlns="http://www.w3.org/2000/svg">
<g clip-path="url(#clip0_2_5)">
<path d="M27.7841 7.40314C27.6215 6.82191 27.3116 6.29251 26.8843 5.8662C26.4571 5.43989 25.927 5.13111 25.3454 4.96977C23.1623 4.38614 14.3861 4.38614 14.3861 4.38614C14.3861 4.38614 5.62645 4.37214 3.42057 4.96977C2.83992 5.13182 2.31089 5.44092 1.88462 5.86719C1.45835 6.29346 1.14925 6.82249 0.987198 7.40314C0.572622 9.63809 0.368438 11.907 0.377323 14.18C0.373277 16.4421 0.57743 18.6998 0.987198 20.9245C1.14977 21.5055 1.45896 22.0349 1.88509 22.4619C2.31121 22.889 2.83996 23.1993 3.42057 23.3631C5.6037 23.9468 14.3861 23.9468 14.3861 23.9468C14.3861 23.9468 23.1404 23.9468 25.3454 23.3631C25.927 23.2 26.4568 22.89 26.8839 22.4629C27.3109 22.0359 27.6209 21.5061 27.7841 20.9245C28.1857 18.7011 28.3817 16.4401 28.3677 14.18C28.3817 11.905 28.1901 9.64052 27.7841 7.40314V7.40314ZM11.5826 18.3686V9.97302L18.8879 14.18L11.5826 18.3686Z" fill="#E00028"/>
</g>
<defs>
<clipPath id="clip0_2_5">
<rect width="28" height="28" fill="white" transform="translate(0.37207 0.166016)"/>
</clipPath>
</defs>
</svg>
