<svg width="16" height="17" viewBox="0 0 16 17" fill="none" xmlns="http://www.w3.org/2000/svg">
<path d="M6.00033 8.37076V14.6928C6.00034 14.778 6.02214 14.8619 6.06368 14.9363C6.10522 15.0108 6.16511 15.0734 6.23766 15.1182C6.31021 15.163 6.39301 15.1885 6.47819 15.1923C6.56337 15.196 6.6481 15.178 6.72433 15.1398L9.72433 13.6398C9.80728 13.5982 9.87703 13.5344 9.92577 13.4554C9.97451 13.3765 10.0003 13.2855 10.0003 13.1928V8.37076L14.3873 3.00976C14.429 2.95894 14.4602 2.90042 14.4792 2.83753C14.4982 2.77465 14.5046 2.70864 14.4981 2.64327C14.4916 2.57789 14.4723 2.51444 14.4413 2.45653C14.4103 2.39862 14.3682 2.34739 14.3173 2.30576C14.2665 2.26413 14.208 2.23292 14.1451 2.21391C14.0822 2.1949 14.0162 2.18846 13.9508 2.19496C13.8855 2.20146 13.822 2.22077 13.7641 2.25179C13.7062 2.28282 13.655 2.32494 13.6133 2.37576L9.11333 7.87576C9.04017 7.9652 9.00024 8.07721 9.00033 8.19276V12.8838L7.00033 13.8838V8.19276C7.00043 8.07721 6.9605 7.9652 6.88733 7.87576L3.05533 3.19276H11.0003C11.1329 3.19276 11.2601 3.14008 11.3539 3.04632C11.4477 2.95255 11.5003 2.82537 11.5003 2.69276C11.5003 2.56015 11.4477 2.43298 11.3539 2.33921C11.2601 2.24544 11.1329 2.19276 11.0003 2.19276H2.00033C1.90561 2.1927 1.81282 2.21954 1.73277 2.27017C1.65271 2.32079 1.58868 2.39312 1.54813 2.47872C1.50758 2.56432 1.49218 2.65968 1.50373 2.7537C1.51527 2.84771 1.55328 2.93651 1.61333 3.00976L6.00033 8.37076Z" fill="white"/>
</svg>
