<svg width="25" height="25" viewBox="0 0 25 25" fill="none" xmlns="http://www.w3.org/2000/svg">
<path d="M17.3721 3.66602C17.3721 3.53341 17.3194 3.40623 17.2256 3.31246C17.1319 3.21869 17.0047 3.16602 16.8721 3.16602H14.3721C13.1132 3.10331 11.8807 3.54141 10.9438 4.3846C10.0069 5.22778 9.44185 6.40751 9.37207 7.66602V10.366H6.87207C6.73946 10.366 6.61229 10.4187 6.51852 10.5125C6.42475 10.6062 6.37207 10.7334 6.37207 10.866V13.466C6.37207 13.5986 6.42475 13.7258 6.51852 13.8196C6.61229 13.9133 6.73946 13.966 6.87207 13.966H9.37207V20.666C9.37207 20.7986 9.42475 20.9258 9.51852 21.0196C9.61228 21.1133 9.73946 21.166 9.87207 21.166H12.8721C13.0047 21.166 13.1319 21.1133 13.2256 21.0196C13.3194 20.9258 13.3721 20.7986 13.3721 20.666V13.966H15.9921C16.1033 13.9676 16.2118 13.9321 16.3006 13.8651C16.3893 13.7981 16.4532 13.7034 16.4821 13.596L17.2021 10.996C17.222 10.9221 17.2246 10.8447 17.2099 10.7696C17.1951 10.6945 17.1634 10.6238 17.117 10.563C17.0706 10.5021 17.0109 10.4527 16.9424 10.4186C16.874 10.3844 16.7986 10.3664 16.7221 10.366H13.3721V7.66602C13.3969 7.41849 13.5132 7.18913 13.6981 7.02271C13.883 6.85629 14.1233 6.76477 14.3721 6.76602H16.8721C17.0047 6.76602 17.1319 6.71334 17.2256 6.61957C17.3194 6.5258 17.3721 6.39862 17.3721 6.26602V3.66602Z" fill="#125E90"/>
</svg>
