<svg width="25" height="19" viewBox="0 0 25 19" fill="none" xmlns="http://www.w3.org/2000/svg">
<g clip-path="url(#clip0_2_7)">
<path d="M5.79837 18.0774V8.85264L2.93749 6.23537L0.37207 4.78297V16.4495C0.37207 17.3502 1.10186 18.0774 2 18.0774H5.79837V18.0774Z" fill="#4285F4"/>
<path d="M18.8214 18.0774H22.6198C23.5206 18.0774 24.2477 17.3475 24.2477 16.4495V4.78307L21.342 6.44662L18.8214 8.85265V18.0774V18.0774Z" fill="#34A853"/>
<path d="M5.79837 8.85265L5.40909 5.24827L5.79837 1.79852L12.3099 6.6822L18.8214 1.79852L19.2569 5.06202L18.8214 8.85265L12.3099 13.7363L5.79837 8.85265Z" fill="#EA4335"/>
<path d="M18.8214 1.79851V8.85265L24.2477 4.78297V2.61243C24.2477 0.599323 21.9497 -0.548294 20.3409 0.659012L18.8214 1.79851Z" fill="#FBBC04"/>
<path d="M0.37207 4.78283L2.86773 6.65464L5.79837 8.85251V1.79837L4.27891 0.658872C2.6673 -0.548527 0.37207 0.599183 0.37207 2.6122V4.78274V4.78283Z" fill="#C5221F"/>
</g>
<defs>
<clipPath id="clip0_2_7">
<rect width="23.8756" height="18" fill="white" transform="translate(0.37207 0.166016)"/>
</clipPath>
</defs>
</svg>
