<svg width="30" height="31" viewBox="0 0 30 31" fill="none" xmlns="http://www.w3.org/2000/svg">
<path d="M5.5 21.8809C6.4645 22.4144 13.4455 26.4384 18.41 23.3369C23.374 20.2354 23.1 14.8919 23.1 12.4429C23.55 11.5009 24.5 11.0219 24.5 8.47194C23.567 9.33394 22.6395 9.62694 21.7175 9.35194C20.8145 7.97494 19.572 7.36544 17.9895 7.52444C15.6165 7.76294 14.7485 10.0909 15.004 13.1034C11.345 14.9534 8.476 11.7619 6.997 9.35194C6.503 11.2499 6.027 13.5289 6.997 16.0494C7.644 17.7304 9.1995 19.1509 11.6625 20.3124C9.166 21.6649 7.112 22.1884 5.5 21.8809Z" stroke="#ADADAD" stroke-linejoin="round"/>
<rect x="0.5" y="0.583252" width="29" height="29" rx="14.5" stroke="#B8B8B8"/>
</svg>
